<svg width="731" height="581" viewBox="0 0 731 581" fill="none" xmlns="http://www.w3.org/2000/svg">
<path d="M376.77 494.474C376.77 541.74 414.026 580.056 459.984 580.056C505.941 580.056 543.197 541.74 543.197 494.474C543.197 447.208 505.941 408.892 459.984 408.892C414.026 408.892 376.77 447.208 376.77 494.474Z" fill="#393939"/>
<path d="M376.771 85.582C376.771 132.848 414.026 171.164 459.984 171.164C505.941 171.164 543.197 132.848 543.197 85.582C543.197 38.3164 505.941 -1.67486e-06 459.984 -3.74091e-06C414.026 -5.80696e-06 376.771 38.3164 376.771 85.582Z" fill="#95D0D5"/>
<path d="M4.2139e-05 304.291C4.01301e-05 351.557 37.2558 389.874 83.2132 389.874C129.17 389.874 166.426 351.557 166.426 304.292C166.426 257.026 129.17 218.709 83.2132 218.709C37.2558 218.709 4.41479e-05 257.026 4.2139e-05 304.291Z" fill="#FD7E50"/>
<path d="M730.426 580.056C708.571 580.056 686.929 575.629 666.738 567.027C646.546 558.425 628.199 545.817 612.745 529.923C597.291 514.029 585.032 495.16 576.668 474.394C568.305 453.627 564 431.37 564 408.892L730.426 408.892L730.426 580.056Z" fill="#FD7E50"/>
<path d="M564 408.892C564 386.414 568.305 364.157 576.668 343.39C585.032 322.624 597.291 303.755 612.745 287.861C628.199 271.967 646.546 259.359 666.738 250.757C686.929 242.155 708.571 237.728 730.426 237.728L730.426 408.892L564 408.892Z" fill="#95D0D5"/>
<path d="M730.426 190.182C686.287 190.182 643.956 172.149 612.745 140.049C581.534 107.95 564 64.4136 564 19.0181L730.426 19.0181L730.426 190.182Z" fill="#71357C"/>
<path d="M543.197 408.892C521.341 408.892 499.7 404.465 479.508 395.863C459.316 387.261 440.97 374.653 425.516 358.759C410.062 342.865 397.803 323.996 389.439 303.23C381.075 282.463 376.771 260.206 376.771 237.728L543.197 237.728L543.197 408.892Z" fill="#F35D5D"/>
<path d="M7.98407e-06 580.056C8.9394e-06 557.579 4.30477 535.321 12.6685 514.554C21.0322 493.788 33.291 474.919 48.7451 459.025C64.1992 443.131 82.5459 430.523 102.738 421.921C122.929 413.319 144.571 408.892 166.426 408.892L166.426 580.056L7.98407e-06 580.056Z" fill="#95D0D5"/>
<path d="M166.426 23.7729C188.282 23.7729 209.923 28.2002 230.115 36.802C250.307 45.4038 268.653 58.0117 284.107 73.9057C299.562 89.7998 311.82 108.669 320.184 129.435C328.548 150.202 332.853 172.459 332.853 194.937L166.426 194.937L166.426 23.7729Z" fill="#F35D5D"/>
<path d="M7.98407e-06 194.937C8.9394e-06 172.459 4.30477 150.202 12.6685 129.435C21.0322 108.669 33.291 89.7998 48.7451 73.9057C64.1992 58.0117 82.5459 45.4038 102.738 36.802C122.929 28.2002 144.571 23.7729 166.426 23.7729L166.426 194.937L7.98407e-06 194.937Z" fill="#393939"/>
<path d="M351.344 580.056C329.489 580.056 307.847 575.629 287.656 567.027C267.464 558.425 249.117 545.817 233.663 529.923C218.209 514.029 205.95 495.16 197.586 474.394C189.223 453.627 184.918 431.37 184.918 408.892C184.918 386.414 189.223 364.157 197.586 343.39C205.95 322.624 218.209 303.755 233.663 287.861C249.117 271.967 267.464 259.359 287.656 250.757C307.847 242.155 329.489 237.728 351.344 237.728L351.344 408.892L351.344 580.056Z" fill="#71357C"/>
</svg>
