<svg width="297" height="70" viewBox="0 0 297 70" fill="none" xmlns="http://www.w3.org/2000/svg">
<path d="M279.845 -1.39801e-06H17.1567C7.6815 -1.39801e-06 6.10352e-05 6.01787 6.10352e-05 13.444V56.5538C6.10352e-05 63.98 7.6815 70 17.1567 70H279.845C289.318 70 297 63.98 297 56.5538V13.444C297 6.01787 289.318 -1.39801e-06 279.845 -1.39801e-06Z" fill="#F35D5D"/>
<path d="M67.1531 27.4415L59.1586 35.3813L35.6893 11.4876C36.8666 10.7798 38.4005 10.6673 39.7578 11.4575L67.1531 27.4415Z" fill="white"/>
<path d="M67.3487 46.306L39.7575 62.4053C38.1075 63.3683 36.1958 62.9924 34.9826 61.8346L59.1575 37.9409L67.3487 46.306Z" fill="white"/>
<path d="M76.6008 40.3775L68.6905 44.9922L68.628 45.0278L60.4373 36.6627L68.4318 28.7201L68.4938 28.7585L76.6008 33.4884C79.2382 35.0248 79.2382 38.8383 76.6008 40.3775Z" fill="white"/>
<path d="M33.7035 60.5562C33.6868 60.5397 33.67 60.5232 33.6533 60.5068C32.94 59.8044 32.481 58.8222 32.481 57.6809V16.1817C32.481 14.7029 33.2527 13.4903 34.3493 12.8044C34.3696 12.7907 34.3897 12.7797 34.41 12.766L57.8792 36.6624L33.7035 60.5562Z" fill="white"/>
<path d="M122.466 42.583H119.271H110.989V45.7628H119.036C118.073 49.302 114.836 51.9057 110.989 51.9057C106.383 51.9057 102.65 48.1744 102.65 43.568C102.65 38.9615 106.383 35.2275 110.989 35.2275C113.166 35.2275 115.148 36.0616 116.633 37.4279L118.883 35.1809C116.821 33.2384 114.044 32.0477 110.989 32.0477C104.628 32.0477 99.4705 37.2056 99.4705 43.568C99.4705 49.9303 104.628 55.0854 110.989 55.0854C117.351 55.0854 122.508 49.9303 122.508 43.568C122.508 43.236 122.493 42.9068 122.466 42.583Z" fill="white"/>
<path d="M131.531 52.084C129.305 52.084 127.5 50.1361 127.5 47.7327C127.5 45.3293 129.305 43.3787 131.531 43.3787C133.758 43.3787 135.563 45.3293 135.563 47.7327C135.563 50.1361 133.758 52.084 131.531 52.084ZM131.531 40.2016C127.463 40.2016 124.165 43.5213 124.165 47.6147C124.165 51.7109 127.463 55.0278 131.531 55.0278C135.599 55.0278 138.897 51.7109 138.897 47.6147C138.897 43.5213 135.599 40.2016 131.531 40.2016Z" fill="white"/>
<path d="M147.92 52.084C145.694 52.084 143.888 50.1361 143.888 47.7327C143.888 45.3293 145.694 43.3787 147.92 43.3787C150.147 43.3787 151.952 45.3293 151.952 47.7327C151.952 50.1361 150.147 52.084 147.92 52.084ZM147.92 40.2016C143.852 40.2016 140.554 43.5213 140.554 47.6147C140.554 51.7109 143.852 55.0278 147.92 55.0278C151.988 55.0278 155.286 51.7109 155.286 47.6147C155.286 43.5213 151.988 40.2016 147.92 40.2016Z" fill="white"/>
<path d="M175.418 32.0478V55.3242H172.239V32.0478H175.418Z" fill="white"/>
<path d="M187.492 44.3885L180.269 47.2171C180.311 46.759 180.427 46.309 180.616 45.8783C181.08 44.8165 181.93 43.9989 183.009 43.5764C183.523 43.3734 184.057 43.2774 184.587 43.2774C185.65 43.2774 186.69 43.667 187.492 44.3885ZM188.49 49.519C188.012 50.4984 187.189 51.2557 186.173 51.6535C185.094 52.0787 183.915 52.054 182.853 51.5904C182.177 51.2941 181.6 50.8441 181.161 50.2762L191.962 46.0456L191.794 45.4832C191.733 45.2747 191.663 45.0717 191.586 44.8769C190.854 43.0085 189.439 41.5352 187.6 40.7314C185.762 39.9275 183.72 39.8891 181.852 40.6189C179.983 41.3514 178.511 42.7671 177.708 44.6053C176.904 46.4435 176.864 48.4847 177.596 50.3558C178.328 52.2241 179.743 53.6947 181.582 54.4986C182.546 54.9211 183.567 55.1323 184.589 55.1323C185.515 55.1323 186.442 54.9567 187.33 54.611C189.12 53.9087 190.557 52.5671 191.38 50.8304L191.661 50.2378L188.758 48.9675L188.49 49.519Z" fill="white"/>
<path d="M163.618 52.0838C161.6 52.0838 159.964 50.1359 159.964 47.7325C159.964 45.3291 161.6 43.3785 163.618 43.3785C165.636 43.3785 167.272 45.3291 167.272 47.7325C167.272 50.1359 165.636 52.0838 163.618 52.0838ZM167.402 40.2014V41.5073C166.327 40.6843 165.023 40.2014 163.618 40.2014C159.931 40.2014 156.943 43.5211 156.943 47.6145C156.943 51.7107 159.931 55.0276 163.618 55.0276C165.023 55.0276 166.327 54.5475 167.402 53.7217V55.3239C167.402 56.2375 166.743 58.7808 163.743 58.7808C160.744 58.7808 159.899 56.1004 159.899 56.1004L157.017 57.442C157.017 57.442 158.101 61.6753 164.029 61.6753C167.24 61.6753 168.895 59.8097 169.738 58.1032C170.309 56.9454 170.582 55.6641 170.582 54.3719V40.2014H167.402Z" fill="white"/>
<path d="M206.157 32.0478V55.3242H202.977V32.0478H206.157Z" fill="white"/>
<path d="M210.608 32.0475V35.2273C212.833 35.2273 214.638 37.1752 214.638 39.5813C214.638 41.9847 212.833 43.9326 210.608 43.9326V46.8765C214.677 46.8765 217.974 43.5568 217.974 39.4634C217.974 35.3672 214.677 32.0475 210.608 32.0475Z" fill="white"/>
<path d="M205.267 35.2275H210.608V32.0477H205.267V35.2275Z" fill="white"/>
<path d="M205.267 46.8765H210.608V43.9326H205.267V46.8765Z" fill="white"/>
<path d="M222.808 32.0478V55.3242H219.629V32.0478H222.808Z" fill="white"/>
<path d="M231.533 52.4327C231.053 52.7262 230.521 52.8717 229.95 52.8717C229.264 52.8717 228.715 52.6906 228.32 52.3339C227.917 51.969 227.711 51.4697 227.711 50.8442C227.711 50.4793 227.783 50.15 227.923 49.8647C228.065 49.5739 228.29 49.3242 228.592 49.1239C228.886 48.9264 229.267 48.7783 229.725 48.685C230.17 48.5917 230.71 48.5423 231.333 48.5423H233.001V51.1405L232.946 51.2036C232.471 51.7386 231.997 52.1528 231.533 52.4327ZM233.198 53.2914L233.588 52.8717V55.0967H236.266V45.4915C236.266 44.5998 236.156 43.8179 235.945 43.1731C235.739 42.5421 235.407 42.0208 234.957 41.6258C234.504 41.2225 233.914 40.9207 233.207 40.7259C232.482 40.5284 231.593 40.4268 230.567 40.4268C229.991 40.4268 229.426 40.4735 228.883 40.5668C228.34 40.66 227.832 40.7808 227.374 40.9262C226.976 41.0524 226.617 41.1923 226.307 41.3377L226.477 43.8536C226.671 43.7548 226.894 43.6505 227.138 43.5435C227.527 43.3679 227.98 43.2088 228.485 43.0661C228.998 42.9207 229.588 42.8467 230.235 42.8467C230.737 42.8467 231.168 42.9015 231.514 43.0058C231.876 43.1183 232.172 43.2966 232.395 43.5353C232.614 43.7712 232.773 44.0675 232.866 44.4187C232.957 44.7534 233.001 45.143 233.001 45.582V46.6191H231.47C230.296 46.6191 229.253 46.7096 228.372 46.8852C227.5 47.0608 226.765 47.3296 226.183 47.6891C225.615 48.043 225.182 48.4957 224.896 49.0334C224.608 49.5739 224.463 50.2214 224.463 50.9649C224.463 51.6508 224.578 52.2571 224.806 52.7674C225.031 53.2722 225.352 53.703 225.758 54.0459C226.169 54.3916 226.666 54.655 227.228 54.8306C227.802 55.0089 228.438 55.0967 229.124 55.0967C229.947 55.0967 230.707 54.9376 231.382 54.622C232.057 54.3065 232.669 53.8566 233.198 53.2914Z" fill="white"/>
<path d="M248.889 40.4514L246.565 45.8233L245.138 49.1265L244.17 46.8905L241.385 40.4514H237.92L242.439 50.8934L243.446 53.2227L240.823 59.6289H244.288L246.568 53.8345L248.299 49.8289L252.354 40.4514H248.889Z" fill="white"/>
<path d="M118.764 23.3809C118.764 23.4605 118.758 23.5263 118.747 23.5867C118.735 23.647 118.715 23.6964 118.689 23.7376C118.662 23.7787 118.631 23.8116 118.595 23.8308C118.559 23.8528 118.521 23.8638 118.479 23.8638H113.083C112.976 23.8638 112.866 23.8226 112.753 23.7431C112.641 23.6635 112.584 23.5153 112.584 23.3013V12.9005C112.584 12.6865 112.641 12.5411 112.753 12.4588C112.866 12.3792 112.976 12.3408 113.083 12.3408H118.399C118.441 12.3408 118.479 12.349 118.515 12.371C118.551 12.3929 118.58 12.4231 118.604 12.4643C118.628 12.5054 118.645 12.5575 118.657 12.6206C118.669 12.6837 118.675 12.7551 118.675 12.8374C118.675 12.9142 118.669 12.9828 118.657 13.0431C118.645 13.1035 118.628 13.1529 118.604 13.1913C118.58 13.2297 118.551 13.2571 118.515 13.2791C118.479 13.301 118.441 13.3093 118.399 13.3093H113.67V17.3615H117.749C117.797 17.3615 117.838 17.3725 117.874 17.3944C117.91 17.4136 117.939 17.4438 117.963 17.4822C117.986 17.5206 118.004 17.5728 118.016 17.6331C118.028 17.6962 118.034 17.7676 118.034 17.8526C118.034 17.9294 118.028 17.9953 118.016 18.0529C118.004 18.1078 117.986 18.1544 117.963 18.1901C117.939 18.2257 117.91 18.2532 117.874 18.2696C117.838 18.2888 117.797 18.2971 117.749 18.2971H113.67V22.8925H118.479C118.521 22.8925 118.559 22.9035 118.595 22.9227C118.631 22.9447 118.662 22.9749 118.689 23.0133C118.715 23.0517 118.735 23.1011 118.747 23.1642C118.758 23.2273 118.764 23.2986 118.764 23.3809Z" fill="white"/>
<path d="M128.48 12.8375C128.48 12.9143 128.474 12.9829 128.462 13.0433C128.45 13.1036 128.432 13.153 128.408 13.1914C128.385 13.2298 128.355 13.2573 128.32 13.2792C128.284 13.3012 128.245 13.3094 128.204 13.3094H124.766V23.6856C124.766 23.7212 124.757 23.7542 124.739 23.7843C124.722 23.8118 124.692 23.8365 124.651 23.8529C124.609 23.8721 124.553 23.8858 124.481 23.8996C124.41 23.9105 124.324 23.916 124.223 23.916C124.122 23.916 124.036 23.9105 123.965 23.8996C123.894 23.8858 123.837 23.8721 123.796 23.8529C123.754 23.8365 123.724 23.8118 123.707 23.7843C123.689 23.7542 123.68 23.7212 123.68 23.6856V13.3094H120.243C120.195 13.3094 120.155 13.3012 120.122 13.2792C120.09 13.2573 120.061 13.2298 120.038 13.1914C120.014 13.153 119.996 13.1036 119.984 13.0433C119.972 12.9829 119.967 12.9143 119.967 12.8375C119.967 12.7552 119.972 12.6839 119.984 12.6208C119.996 12.5577 120.014 12.5055 120.038 12.4644C120.061 12.4232 120.09 12.393 120.122 12.3711C120.155 12.3491 120.195 12.3409 120.243 12.3409H128.204C128.245 12.3409 128.284 12.3491 128.32 12.3711C128.355 12.393 128.385 12.4232 128.408 12.4644C128.432 12.5055 128.45 12.5577 128.462 12.6208C128.474 12.6839 128.48 12.7552 128.48 12.8375Z" fill="white"/>
<path d="M135.524 23.6856C135.524 23.7212 135.515 23.7542 135.497 23.7843C135.48 23.8118 135.45 23.8365 135.408 23.8529C135.367 23.8721 135.312 23.8858 135.244 23.8996C135.175 23.9105 135.088 23.916 134.981 23.916C134.88 23.916 134.794 23.9105 134.723 23.8996C134.651 23.8858 134.595 23.8721 134.553 23.8529C134.512 23.8365 134.482 23.8118 134.464 23.7843C134.446 23.7542 134.438 23.7212 134.438 23.6856V12.5165C134.438 12.4836 134.448 12.4507 134.469 12.4205C134.489 12.3903 134.522 12.3656 134.567 12.3491C134.611 12.3299 134.668 12.3162 134.736 12.3052C134.804 12.2915 134.886 12.286 134.981 12.286C135.088 12.286 135.175 12.2915 135.244 12.3052C135.312 12.3162 135.367 12.3299 135.408 12.3491C135.45 12.3656 135.48 12.3903 135.497 12.4205C135.515 12.4507 135.524 12.4836 135.524 12.5165V23.6856Z" fill="white"/>
<path d="M145.872 12.8375C145.872 12.9143 145.866 12.9829 145.854 13.0433C145.842 13.1036 145.824 13.153 145.8 13.1914C145.777 13.2298 145.747 13.2573 145.712 13.2792C145.676 13.3012 145.637 13.3094 145.596 13.3094H142.158V23.6856C142.158 23.7212 142.149 23.7542 142.132 23.7843C142.114 23.8118 142.084 23.8365 142.043 23.8529C142.001 23.8721 141.945 23.8858 141.873 23.8996C141.802 23.9105 141.716 23.916 141.615 23.916C141.514 23.916 141.428 23.9105 141.357 23.8996C141.286 23.8858 141.229 23.8721 141.188 23.8529C141.146 23.8365 141.116 23.8118 141.099 23.7843C141.081 23.7542 141.072 23.7212 141.072 23.6856V13.3094H137.635C137.587 13.3094 137.547 13.3012 137.514 13.2792C137.482 13.2573 137.453 13.2298 137.43 13.1914C137.406 13.153 137.388 13.1036 137.376 13.0433C137.364 12.9829 137.358 12.9143 137.358 12.8375C137.358 12.7552 137.364 12.6839 137.376 12.6208C137.388 12.5577 137.406 12.5055 137.43 12.4644C137.453 12.4232 137.482 12.393 137.514 12.3711C137.547 12.3491 137.587 12.3409 137.635 12.3409H145.596C145.637 12.3409 145.676 12.3491 145.712 12.3711C145.747 12.393 145.777 12.4232 145.8 12.4644C145.824 12.5055 145.842 12.5577 145.854 12.6208C145.866 12.6839 145.872 12.7552 145.872 12.8375Z" fill="white"/>
<path d="M159.942 18.0666C159.942 17.3835 159.878 16.7442 159.751 16.1461C159.623 15.5507 159.413 15.0295 159.119 14.5878C158.825 14.146 158.434 13.7976 157.948 13.5452C157.461 13.2928 156.858 13.1666 156.14 13.1666C155.427 13.1666 154.826 13.301 154.336 13.5644C153.847 13.8278 153.449 14.1817 153.143 14.6289C152.837 15.0734 152.618 15.5919 152.484 16.1873C152.351 16.7799 152.284 17.4054 152.284 18.0666C152.284 18.7662 152.345 19.4192 152.466 20.02C152.588 20.6236 152.794 21.1476 153.085 21.5921C153.376 22.0365 153.765 22.385 154.252 22.6374C154.739 22.8898 155.347 23.016 156.078 23.016C156.802 23.016 157.41 22.8816 157.903 22.6127C158.396 22.3411 158.794 21.9789 159.096 21.5262C159.399 21.0708 159.616 20.5468 159.747 19.9487C159.877 19.3533 159.942 18.7251 159.942 18.0666ZM161.1 17.9678C161.1 18.8869 160.995 19.721 160.784 20.4645C160.573 21.2107 160.257 21.8472 159.835 22.3713C159.414 22.898 158.883 23.3013 158.241 23.5866C157.6 23.872 156.852 24.0146 155.997 24.0146C155.143 24.0146 154.408 23.8802 153.793 23.6086C153.179 23.3397 152.674 22.9529 152.279 22.4508C151.885 21.9487 151.594 21.3369 151.407 20.6126C151.22 19.8883 151.126 19.0707 151.126 18.1626C151.126 17.26 151.23 16.4424 151.438 15.7071C151.646 14.9691 151.962 14.3408 152.386 13.8223C152.811 13.3038 153.342 12.9005 153.98 12.6151C154.618 12.3298 155.368 12.1871 156.229 12.1871C157.066 12.1871 157.79 12.3216 158.402 12.5877C159.013 12.8566 159.519 13.2379 159.92 13.7373C160.321 14.2366 160.618 14.8429 160.811 15.5535C161.003 16.2668 161.1 17.0707 161.1 17.9678Z" fill="white"/>
<path d="M172.036 23.3371C172.036 23.4441 172.019 23.5347 171.987 23.606C171.954 23.6773 171.912 23.7349 171.862 23.7788C171.812 23.8227 171.755 23.8529 171.693 23.8721C171.631 23.8886 171.573 23.8996 171.519 23.8996H171.297C171.178 23.8996 171.069 23.8831 170.972 23.8529C170.874 23.8255 170.779 23.7734 170.686 23.6993C170.594 23.6252 170.502 23.5237 170.41 23.4002C170.318 23.2768 170.216 23.1149 170.103 22.9201L166.042 15.7237C165.841 15.3726 165.637 15.0131 165.433 14.6428C165.228 14.2696 165.033 13.9102 164.849 13.5591H164.84C164.846 13.9925 164.849 14.437 164.849 14.8924C164.849 15.3451 164.849 15.7896 164.849 16.2231V23.6856C164.849 23.7212 164.84 23.7542 164.822 23.7843C164.805 23.8118 164.775 23.8365 164.733 23.8529C164.692 23.8721 164.637 23.8858 164.569 23.8996C164.5 23.9105 164.413 23.916 164.306 23.916C164.205 23.916 164.119 23.9105 164.048 23.8996C163.977 23.8858 163.92 23.8721 163.879 23.8529C163.837 23.8365 163.807 23.8118 163.789 23.7843C163.772 23.7542 163.763 23.7212 163.763 23.6856V12.9006C163.763 12.6866 163.819 12.5412 163.932 12.4589C164.045 12.3793 164.155 12.3409 164.261 12.3409H164.707C164.849 12.3409 164.968 12.3519 165.063 12.3766C165.158 12.3985 165.244 12.4397 165.321 12.4946C165.398 12.5522 165.474 12.6317 165.548 12.736C165.622 12.8402 165.704 12.9719 165.793 13.1311L168.901 18.6456C169.097 18.9886 169.283 19.3205 169.458 19.6388C169.633 19.9543 169.803 20.2671 169.97 20.5716C170.136 20.8789 170.3 21.1807 170.464 21.477C170.627 21.7733 170.789 22.0723 170.949 22.3769H170.958C170.952 21.8776 170.949 21.359 170.949 20.8185C170.949 20.2781 170.949 19.7568 170.949 19.2602V12.5522C170.949 12.5165 170.958 12.4863 170.976 12.4561C170.994 12.426 171.023 12.4013 171.065 12.3793C171.106 12.3601 171.161 12.3437 171.23 12.3354C171.298 12.3272 171.386 12.3217 171.493 12.3217C171.587 12.3217 171.671 12.3272 171.742 12.3354C171.813 12.3437 171.869 12.3601 171.911 12.3793C171.952 12.4013 171.984 12.426 172.004 12.4561C172.025 12.4863 172.036 12.5165 172.036 12.5522V23.3371Z" fill="white"/>
<path d="M99.4705 18.091C99.4705 21.2022 102 23.729 105.108 23.729C108.217 23.729 110.746 21.2022 110.746 18.091C110.746 18.0142 110.744 17.9346 110.741 17.8523H105.375V18.9497H109.582L109.49 19.2872C108.954 21.257 107.152 22.6343 105.108 22.6343C102.605 22.6343 100.567 20.5959 100.567 18.091C100.567 15.5888 102.605 13.5504 105.108 13.5504C106.165 13.5504 107.178 13.9153 107.989 14.582L108.767 13.8028C107.747 12.9303 106.458 12.4529 105.108 12.4529C102 12.4529 99.4705 14.9825 99.4705 18.091Z" fill="white"/>
</svg>
