<svg width="39" height="40" viewBox="0 0 39 40" fill="none" xmlns="http://www.w3.org/2000/svg">
<rect width="39" height="40" rx="6" fill="url(#paint0_linear_1_218)"/>
<path d="M16.2545 20.0514C16.2545 18.2089 17.71 16.7148 19.5059 16.7148C21.3018 16.7148 22.7581 18.2089 22.7581 20.0514C22.7581 21.8939 21.3018 23.3879 19.5059 23.3879C17.71 23.3879 16.2545 21.8939 16.2545 20.0514ZM14.4964 20.0514C14.4964 22.8899 16.7392 25.1908 19.5059 25.1908C22.2727 25.1908 24.5154 22.8899 24.5154 20.0514C24.5154 17.2128 22.2727 14.9119 19.5059 14.9119C16.7392 14.9119 14.4964 17.2128 14.4964 20.0514ZM23.543 14.7081C23.5429 14.9457 23.6115 15.1779 23.7401 15.3755C23.8686 15.5731 24.0514 15.7271 24.2653 15.8181C24.4792 15.9091 24.7146 15.933 24.9417 15.8867C25.1688 15.8405 25.3774 15.7262 25.5412 15.5582C25.705 15.3903 25.8166 15.1764 25.8619 14.9434C25.9071 14.7104 25.884 14.4689 25.7955 14.2494C25.707 14.0299 25.557 13.8423 25.3645 13.7102C25.1721 13.5782 24.9458 13.5077 24.7142 13.5076H24.7137C24.4034 13.5077 24.1058 13.6342 23.8863 13.8593C23.6667 14.0844 23.5433 14.3897 23.543 14.7081ZM15.5645 28.1984C14.6134 28.1539 14.0964 27.9914 13.7528 27.8541C13.2974 27.6721 12.9724 27.4555 12.6307 27.1054C12.289 26.7553 12.0775 26.4222 11.901 25.9549C11.767 25.6026 11.6086 25.0721 11.5654 24.0962C11.5181 23.0412 11.5086 22.7243 11.5086 20.0514C11.5086 17.3786 11.5188 17.0626 11.5654 16.0067C11.6087 15.0308 11.7683 14.5013 11.901 14.148C12.0783 13.6807 12.2895 13.3473 12.6307 12.9967C12.9719 12.6462 13.2966 12.4292 13.7528 12.248C14.0963 12.1106 14.6134 11.9481 15.5645 11.9037C16.5929 11.8552 16.9018 11.8455 19.5059 11.8455C22.11 11.8455 22.4192 11.856 23.4484 11.9037C24.3996 11.9482 24.9157 12.1119 25.2601 12.248C25.7156 12.4292 26.0406 12.6466 26.3823 12.9967C26.724 13.3468 26.9347 13.6807 27.112 14.148C27.246 14.5003 27.4044 15.0308 27.4476 16.0067C27.4949 17.0626 27.5044 17.3786 27.5044 20.0514C27.5044 22.7243 27.4949 23.0403 27.4476 24.0962C27.4043 25.0721 27.2451 25.6025 27.112 25.9549C26.9347 26.4222 26.7235 26.7556 26.3823 27.1054C26.0411 27.4551 25.7156 27.6721 25.2601 27.8541C24.9167 27.9915 24.3996 28.154 23.4484 28.1984C22.4201 28.2469 22.1112 28.2566 19.5059 28.2566C16.9006 28.2566 16.5926 28.2469 15.5645 28.1984ZM15.4838 10.1031C14.4452 10.1516 13.7355 10.3206 13.1158 10.568C12.4739 10.8235 11.9305 11.1663 11.3876 11.7225C10.8446 12.2786 10.5113 12.837 10.2623 13.4955C10.0211 14.1317 9.85644 14.8594 9.80914 15.9249C9.76107 16.9921 9.75006 17.3333 9.75006 20.0514C9.75006 22.7695 9.76107 23.1106 9.80914 24.1778C9.85644 25.2434 10.0211 25.971 10.2623 26.6073C10.5113 27.2654 10.8447 27.8244 11.3876 28.3803C11.9305 28.9362 12.4739 29.2785 13.1158 29.5348C13.7367 29.7822 14.4452 29.9511 15.4838 29.9996C16.5245 30.0482 16.8565 30.0603 19.5059 30.0603C22.1553 30.0603 22.4878 30.049 23.5281 29.9996C24.5667 29.9511 25.2759 29.7822 25.8961 29.5348C26.5375 29.2785 27.0813 28.9365 27.6243 28.3803C28.1672 27.8241 28.4998 27.2654 28.7495 26.6073C28.9907 25.971 29.1562 25.2433 29.2027 24.1778C29.25 23.1098 29.261 22.7695 29.261 20.0514C29.261 17.3333 29.25 16.9921 29.2027 15.9249C29.1554 14.8593 28.9907 14.1313 28.7495 13.4955C28.4998 12.8374 28.1664 12.2795 27.6243 11.7225C27.0821 11.1654 26.5375 10.8235 25.8969 10.568C25.2759 10.3206 24.5666 10.1508 23.5288 10.1031C22.4886 10.0546 22.1561 10.0425 19.5067 10.0425C16.8573 10.0425 16.5245 10.0538 15.4838 10.1031Z" fill="white"/>
<defs>
<linearGradient id="paint0_linear_1_218" x1="38.2504" y1="40" x2="-1.73676" y2="1.01249" gradientUnits="userSpaceOnUse">
<stop stop-color="#FBE18A"/>
<stop offset="0.21" stop-color="#FCBB45"/>
<stop offset="0.38" stop-color="#F75274"/>
<stop offset="0.52" stop-color="#D53692"/>
<stop offset="0.74" stop-color="#8F39CE"/>
<stop offset="1" stop-color="#5B4FE9"/>
</linearGradient>
</defs>
</svg>
