<svg width="40" height="40" viewBox="0 0 40 40" fill="none" xmlns="http://www.w3.org/2000/svg">
<rect width="40" height="40" rx="6" fill="#33CCFF"/>
<path d="M29.9276 13.6672C29.2671 13.9517 28.5727 14.1498 27.8617 14.2566C28.1941 14.1996 28.6833 13.6006 28.878 13.3582C29.1738 12.9926 29.3993 12.5751 29.5429 12.1271C29.5429 12.0938 29.5761 12.0463 29.5429 12.0225C29.5261 12.0134 29.5073 12.0086 29.4883 12.0086C29.4692 12.0086 29.4504 12.0134 29.4336 12.0225C28.6615 12.441 27.8398 12.7604 26.9878 12.9732C26.9582 12.9823 26.9266 12.9831 26.8964 12.9756C26.8663 12.968 26.8388 12.9524 26.8169 12.9304C26.7506 12.8514 26.6792 12.7768 26.6032 12.707C26.2557 12.3954 25.8615 12.1404 25.4349 11.9512C24.8591 11.7148 24.2371 11.6124 23.616 11.6518C23.0133 11.6899 22.4249 11.8517 21.8873 12.1271C21.3579 12.4175 20.8927 12.812 20.5196 13.2869C20.127 13.7757 19.8436 14.343 19.6885 14.9506C19.5605 15.5285 19.546 16.1259 19.6457 16.7093C19.6457 16.8092 19.6457 16.8234 19.5602 16.8092C16.1741 16.3101 13.3959 15.1075 11.1258 12.5264C11.0261 12.4123 10.9738 12.4123 10.8931 12.5264C9.90527 14.0284 10.3849 16.4051 11.6197 17.5792C11.7859 17.7361 11.9569 17.8882 12.1374 18.0308C11.5712 17.9905 11.0189 17.837 10.5132 17.5792C10.4182 17.5174 10.3659 17.5507 10.3612 17.6648C10.3477 17.8229 10.3477 17.9819 10.3612 18.1401C10.4603 18.8981 10.7587 19.6161 11.226 20.2207C11.6933 20.8254 12.3126 21.295 13.0207 21.5815C13.1933 21.6555 13.3732 21.7113 13.5573 21.7479C13.0332 21.8511 12.4957 21.8672 11.9664 21.7954C11.8524 21.7716 11.8097 21.8334 11.8524 21.9428C12.5505 23.8441 14.0655 24.424 15.1768 24.7472C15.3288 24.771 15.4807 24.771 15.6517 24.809C15.6517 24.809 15.6517 24.809 15.6232 24.8375C15.2955 25.4365 13.9705 25.8405 13.3626 26.0496C12.2531 26.4485 11.0701 26.601 9.89577 26.4965C9.71056 26.4679 9.66781 26.4727 9.62032 26.4965C9.57283 26.5202 9.62032 26.5725 9.67256 26.62C9.91002 26.7769 10.1475 26.9148 10.3944 27.0478C11.1296 27.4492 11.9069 27.768 12.712 27.9985C16.8817 29.1488 21.5739 28.3027 24.7035 25.1893C27.1636 22.7461 28.0279 19.376 28.0279 16.0011C28.0279 15.8727 28.1846 15.7967 28.2749 15.7301C28.8972 15.2448 29.4459 14.6716 29.9038 14.0284C29.9831 13.9326 30.0238 13.8105 30.0178 13.6862C30.0178 13.6149 30.0178 13.6292 29.9276 13.6672Z" fill="white"/>
</svg>
